<?xml version="1.0" encoding="UTF-8"?> <svg xmlns="http://www.w3.org/2000/svg" id="Layer_1" data-name="Layer 1" width="480" height="464" viewBox="0 0 480 464"><defs><style>.cls-1{fill:#673390;}</style></defs><path class="cls-1" d="M344,200A136,136,0,1,0,480,336,136,136,0,0,0,344,200Zm0,256A120,120,0,1,1,464,336,120,120,0,0,1,344,456Z" transform="translate(0 -8)"></path><path class="cls-1" d="M352,313.47V264H336v49.47A24,24,0,0,0,321.47,328H288v16h33.47A23.95,23.95,0,1,0,352,313.47ZM344,344a8,8,0,1,1,8-8A8,8,0,0,1,344,344Z" transform="translate(0 -8)"></path><path class="cls-1" d="M240,328h16v16H240Z" transform="translate(0 -8)"></path><path class="cls-1" d="M336,424h16v16H336Z" transform="translate(0 -8)"></path><path class="cls-1" d="M432,328h16v16H432Z" transform="translate(0 -8)"></path><path class="cls-1" d="M336,232h16v16H336Z" transform="translate(0 -8)"></path><path class="cls-1" d="M16,352V120H384v72h16V80a40.05,40.05,0,0,0-40-40H304V32a24,24,0,0,0-48,0v8H144V32a24,24,0,0,0-48,0v8H40A40.05,40.05,0,0,0,0,80V352a40.05,40.05,0,0,0,40,40H200V376H40A24,24,0,0,1,16,352ZM272,32a8,8,0,0,1,16,0V64a8,8,0,0,1-16,0ZM112,32a8,8,0,0,1,16,0V64a8,8,0,0,1-16,0ZM40,56H96v8a24,24,0,0,0,48,0V56H256v8a24,24,0,0,0,48,0V56h56a24,24,0,0,1,24,24v24H16V80A24,24,0,0,1,40,56Z" transform="translate(0 -8)"></path><path class="cls-1" d="M112,184a16,16,0,0,0-16-16H64a16,16,0,0,0-16,16v32a16,16,0,0,0,16,16H96a16,16,0,0,0,16-16ZM64,216V184H96v32Z" transform="translate(0 -8)"></path><path class="cls-1" d="M192,184a16,16,0,0,0-16-16H144a16,16,0,0,0-16,16v32a16,16,0,0,0,16,16h32a16,16,0,0,0,16-16Zm-48,32V184h32v32Z" transform="translate(0 -8)"></path><path class="cls-1" d="M272,208V184a16,16,0,0,0-16-16H224a16,16,0,0,0-16,16v32a16,16,0,0,0,16,16h16V216H224V184h32v24Z" transform="translate(0 -8)"></path><path class="cls-1" d="M96,264H64a16,16,0,0,0-16,16v32a16,16,0,0,0,16,16H96a16,16,0,0,0,16-16V280A16,16,0,0,0,96,264ZM64,312V280H96v32Z" transform="translate(0 -8)"></path><path class="cls-1" d="M176,264H144a16,16,0,0,0-16,16v32a16,16,0,0,0,16,16h32a16,16,0,0,0,16-16V280A16,16,0,0,0,176,264Zm-32,48V280h32v32Z" transform="translate(0 -8)"></path><path class="cls-1" d="M352,192v-8a16,16,0,0,0-16-16H304a16,16,0,0,0-16,16v8h16v-8h32v8Z" transform="translate(0 -8)"></path></svg> 