<?xml version="1.0" encoding="UTF-8"?> <svg xmlns="http://www.w3.org/2000/svg" id="Capa_1" data-name="Capa 1" width="510.85" height="512" viewBox="0 0 510.85 512"><defs><style>.cls-1{fill:#673390;}</style></defs><path class="cls-1" d="M212.51,230.82H183.14A23.93,23.93,0,0,0,168,215.71V164.82a7.5,7.5,0,0,0-15,0v50.89a23.84,23.84,0,1,0,30.13,30.12h29.36a7.5,7.5,0,0,0,0-15Zm-52,16.36a8.84,8.84,0,1,1,8.84-8.84A8.85,8.85,0,0,1,160.52,247.18Z" transform="translate(-0.58 0)"></path><path class="cls-1" d="M319.42,256.75a7.5,7.5,0,0,0-14.9-1.71,144.8,144.8,0,0,1-144,128.25c-79.92,0-145-65-145-145s65-144.95,145-144.95a145.37,145.37,0,0,1,19.91,1.36h.11a144.79,144.79,0,0,1,124,126.93,7.5,7.5,0,1,0,14.9-1.7,159,159,0,0,0-28.9-75l9.85-9.85a19.22,19.22,0,0,0,0-27.21l-9.48-9.48a19.23,19.23,0,0,0-27.21,0l-9.87,9.87a159.48,159.48,0,0,0-65-27.46V65A18.67,18.67,0,0,0,204,46.68V33.42a18.67,18.67,0,0,0-18.65-18.65H135.68A18.66,18.66,0,0,0,117,33.42V46.68A18.67,18.67,0,0,0,132.27,65V80.89a159.06,159.06,0,0,0-65,27.54l-10-10a19.26,19.26,0,0,0-27.22,0L20.66,108a19.23,19.23,0,0,0,0,27.21l10,10a159,159,0,0,0-30,93.21c0,88.19,71.75,160,160,160a159.8,159.8,0,0,0,158.9-141.54ZM274.3,109.08a4.26,4.26,0,0,1,6,0l9.48,9.48a4.25,4.25,0,0,1,0,6l-8.63,8.63a159.29,159.29,0,0,0-15.49-15.47ZM132,33.42a3.65,3.65,0,0,1,3.65-3.65h49.69A3.65,3.65,0,0,1,189,33.42V46.68a3.66,3.66,0,0,1-3.65,3.65H135.68A3.66,3.66,0,0,1,132,46.68Zm15.24,31.91h26.51V78.94q-6.57-.54-13.26-.55t-13.25.55Zm-116,59.23a4.24,4.24,0,0,1,0-6l9.48-9.48a4.26,4.26,0,0,1,6,0l8.73,8.73A161.67,161.67,0,0,0,40,133.3Z" transform="translate(-0.58 0)"></path><path class="cls-1" d="M508.53,283,485.8,235.24a14.46,14.46,0,0,1-1.39-6L484,194.33C484,87.54,398,.37,292.34,0h-.69a191.72,191.72,0,0,0-65.43,11.42,7.5,7.5,0,0,0,5.1,14.11,176.77,176.77,0,0,1,61-10.53C389.71,15.34,469,95.79,469,194.42l.43,35.05a29.62,29.62,0,0,0,2.85,12.23L495,289.41A14.4,14.4,0,0,1,482.05,310h-.29a29.26,29.26,0,0,0-29.27,29.27v61.55a24.24,24.24,0,0,1-27.76,24l-53.2-7.8a26.61,26.61,0,0,0-30.47,26.32v9.36L179.85,437.79V425.55a7.5,7.5,0,0,0-15,0V436.4l-2.93-.27a25.52,25.52,0,0,0-27.85,25.4V486.3a25.55,25.55,0,0,0,25.48,25.51L359.8,512h0a25.5,25.5,0,0,0,25.51-25.51v-6.44a25.39,25.39,0,0,0-23.16-25.4l-6.11-.57V443.34a11.61,11.61,0,0,1,13.3-11.48l53.2,7.8a39.25,39.25,0,0,0,44.93-38.82V339.29A14.27,14.27,0,0,1,482,325,29.41,29.41,0,0,0,508.53,283ZM370.33,480.05v6.44A10.51,10.51,0,0,1,359.82,497h0l-200.24-.19a10.53,10.53,0,0,1-10.5-10.51V461.53A10.5,10.5,0,0,1,159.54,451c1,0,200.27,18.47,201.25,18.56a10.47,10.47,0,0,1,9.54,10.47Z" transform="translate(-0.58 0)"></path><path class="cls-1" d="M160.52,112.5A126,126,0,0,0,34.69,238.34c0,69.33,56.42,125.83,125.83,125.83s125.84-56.41,125.84-125.83S229.94,112.5,160.52,112.5ZM266,245.84h5.09A110.34,110.34,0,0,1,244,311.19l-3.56-3.56a7.5,7.5,0,0,0-10.61,10.6l3.57,3.57A110.4,110.4,0,0,1,168,348.91v-5.08a7.5,7.5,0,0,0-15,0v5.08a110.34,110.34,0,0,1-65.35-27.12l3.56-3.56a7.5,7.5,0,1,0-10.6-10.6l-3.56,3.56A110.34,110.34,0,0,1,50,245.84H55a7.5,7.5,0,0,0,0-15H50a110.35,110.35,0,0,1,27.12-65.36l3.56,3.57a7.5,7.5,0,1,0,10.6-10.61l-3.56-3.56A110.34,110.34,0,0,1,153,127.76v5.09a7.5,7.5,0,0,0,15,0v-5.09a110.35,110.35,0,0,1,65.36,27.12l-3.57,3.56A7.5,7.5,0,1,0,240.42,169l3.56-3.56a110.34,110.34,0,0,1,27.12,65.35H266a7.51,7.51,0,0,0,0,15Z" transform="translate(-0.58 0)"></path></svg> 