<?xml version="1.0" encoding="UTF-8"?> <svg xmlns="http://www.w3.org/2000/svg" id="Layer_1" data-name="Layer 1" width="440" height="496" viewBox="0 0 440 496"><defs><style>.cls-1{fill:#673390;}</style></defs><g id="Accept"><path class="cls-1" d="M112,464H72a8,8,0,0,0,0,16h40a8,8,0,0,0,0-16Z" transform="translate(-40 -8)"></path><path class="cls-1" d="M144,464h-8a8,8,0,0,0,0,16h8a8,8,0,0,0,0-16Z" transform="translate(-40 -8)"></path><path class="cls-1" d="M88,152H344a8,8,0,0,0,8-8V112a8,8,0,0,0-8-8H88a8,8,0,0,0-8,8v32A8,8,0,0,0,88,152Zm8-32H336v16H96Z" transform="translate(-40 -8)"></path><path class="cls-1" d="M88,216H344a8,8,0,0,0,8-8V176a8,8,0,0,0-8-8H88a8,8,0,0,0-8,8v32A8,8,0,0,0,88,216Zm8-32H336v16H96Z" transform="translate(-40 -8)"></path><path class="cls-1" d="M88,280H344a8,8,0,0,0,8-8V240a8,8,0,0,0-8-8H88a8,8,0,0,0-8,8v32A8,8,0,0,0,88,280Zm8-32H336v16H96Z" transform="translate(-40 -8)"></path><path class="cls-1" d="M240,296H88a8,8,0,0,0,0,16H240a8,8,0,0,0,0-16Z" transform="translate(-40 -8)"></path><path class="cls-1" d="M192,320H88a8,8,0,0,0,0,16H192a8,8,0,0,0,0-16Z" transform="translate(-40 -8)"></path><path class="cls-1" d="M104,360a8,8,0,0,0,0-16H88a8,8,0,0,0,0,16Z" transform="translate(-40 -8)"></path><path class="cls-1" d="M136,360a8,8,0,0,0,0-16h-8a8,8,0,0,0,0,16Z" transform="translate(-40 -8)"></path><path class="cls-1" d="M480,384a96.12,96.12,0,0,0-88-95.66V80a8,8,0,0,0-2.34-5.66l-64-64A8,8,0,0,0,320,8H48a8,8,0,0,0-8,8V496a8,8,0,0,0,8,8H384a8,8,0,0,0,8-8V479.66A96.12,96.12,0,0,0,480,384ZM328,35.31,364.69,72H328ZM56,488V24H312V80a8,8,0,0,0,8,8h56V288.34a96,96,0,0,0,0,191.32V488Zm328-24a80,80,0,1,1,80-80A80,80,0,0,1,384,464Z" transform="translate(-40 -8)"></path><path class="cls-1" d="M445.66,354.34a8,8,0,0,0-11.32,0h0l-51.58,51.59-34.64-20.79a8,8,0,1,0-8.24,13.72l40,24a8,8,0,0,0,9.78-1.2l56-56a8,8,0,0,0,0-11.31Z" transform="translate(-40 -8)"></path></g></svg> 