<?xml version="1.0" encoding="UTF-8"?> <svg xmlns="http://www.w3.org/2000/svg" id="Layer_1" data-name="Layer 1" width="291.23" height="374" viewBox="0 0 291.23 374"><defs><style>.cls-1{fill:#673390;}</style></defs><path class="cls-1" d="M328.62,75.72,188.06.82a7,7,0,0,0-6.66,0L44.73,75.76A7,7,0,0,0,41.1,81.9v97.84A202.57,202.57,0,0,0,162.52,365.15l19,8.27a7,7,0,0,0,5.57,0l21.38-9.24A202.19,202.19,0,0,0,332.33,177.8V81.9A7,7,0,0,0,328.62,75.72ZM318.33,177.8A188.21,188.21,0,0,1,203,351.32l-.05,0-18.62,8-16.17-7.06a188.56,188.56,0,0,1-113-172.58V86.05L184.81,15,318.33,86.1Z" transform="translate(-41.1 0)"></path><path class="cls-1" d="M133.18,175.2a7,7,0,0,0-10.64,9.09l37,43.29a7,7,0,0,0,9.74.89l86.09-70.05a7,7,0,1,0-8.83-10.85l-80.79,65.72Z" transform="translate(-41.1 0)"></path></svg> 