<?xml version="1.0" encoding="UTF-8"?> <svg xmlns="http://www.w3.org/2000/svg" id="Layer_1" data-name="Layer 1" width="504.9" height="504.91" viewBox="0 0 504.9 504.91"><defs><style>.cls-1{fill:#673390;}</style></defs><path class="cls-1" d="M256.3,509q-12.45,0-24.93-1.23A253,253,0,0,1,77.94,435c-98.46-98.46-98.46-258.65,0-357.11s258.65-98.46,357.11,0a252.62,252.62,0,0,1,33.22,316.19,12.5,12.5,0,0,1-20.95-13.65C505.57,291,493,171.21,417.37,95.61c-88.71-88.71-233-88.71-321.75,0s-88.71,233.05,0,321.75c75.5,75.51,195.19,88.17,284.6,30.12a12.5,12.5,0,0,1,13.62,21A253.22,253.22,0,0,1,256.3,509Z" transform="translate(-4.1 -4.09)"></path><path class="cls-1" d="M425.84,439.07A12.5,12.5,0,0,1,417,417.71l.37-.37A12.51,12.51,0,0,1,435,435.07l-.37.36A12.45,12.45,0,0,1,425.84,439.07Z" transform="translate(-4.1 -4.09)"></path><path class="cls-1" d="M198.72,222.86a12.5,12.5,0,0,1-12.5-12.5,7.83,7.83,0,1,0-15.66,0,12.51,12.51,0,0,1-25,0,32.84,32.84,0,0,1,65.67,0A12.5,12.5,0,0,1,198.72,222.86Z" transform="translate(-4.1 -4.09)"></path><path class="cls-1" d="M361.71,222.86a12.49,12.49,0,0,1-12.5-12.5,7.83,7.83,0,1,0-15.66,0,12.51,12.51,0,0,1-25,0,32.84,32.84,0,0,1,65.67,0A12.5,12.5,0,0,1,361.71,222.86Z" transform="translate(-4.1 -4.09)"></path><path class="cls-1" d="M259.88,383.19a71.44,71.44,0,0,1-71.36-71.36,12.5,12.5,0,0,1,25,0,46.36,46.36,0,0,0,92.72,0,12.51,12.51,0,0,1,25,0A71.45,71.45,0,0,1,259.88,383.19Z" transform="translate(-4.1 -4.09)"></path></svg> 