<?xml version="1.0" encoding="UTF-8"?> <svg xmlns="http://www.w3.org/2000/svg" id="Layer_5" data-name="Layer 5" width="496" height="496" viewBox="0 0 496 496"><defs><style>.cls-1{fill:#673390;}</style></defs><path class="cls-1" d="M480,8H256a24,24,0,0,0-24,24v77.46A158.82,158.82,0,0,0,168,96C79.78,96,8,167.78,8,256A160,160,0,0,0,133.59,412.27L72,476.8V504H424V323.31l48-48V336h16V248H400v16h60.69L343.76,380.93l-41.51-38.06A156.25,156.25,0,0,0,326,232H480a24,24,0,0,0,24-24V32A24,24,0,0,0,480,8ZM376,40V56H360V40H344V56H328V24h80V56H392V40ZM56.41,248a111.36,111.36,0,0,1,27.05-65.23l22.32,22.32,11.31-11.31L94.77,171.46A111.36,111.36,0,0,1,160,144.41V176h16V144.41a111.36,111.36,0,0,1,65.23,27.05l-22.32,22.32,11.31,11.31,22.32-22.32a111.36,111.36,0,0,1,27,65.23H248v16h31.71a111.25,111.25,0,0,1-13.51,45.83l-18.58-17L199.74,343c-.07-.75-.06-1.5-.18-2.23l-14.35-86.16a17.45,17.45,0,0,0-34.42,0l-14.35,86.15A31,31,0,0,0,136,346v6a31.77,31.77,0,0,0,2.34,11.89A112.07,112.07,0,0,1,56.41,264H88V248ZM152,352v-6a15.56,15.56,0,0,1,.22-2.63l14.35-86.14a1.49,1.49,0,0,1,2.85,0l14.35,86.15A14.42,14.42,0,0,1,184,346v6a16,16,0,0,1-32,0Zm64-2.89V488H184V382.63Zm16-16.76,16.38-17.15L264,329.52V488H232Zm48,11.83,32,29.34V488H280ZM168,488H136V432.92l32-33.52Zm-80-4.8,32-33.52V488H88ZM408,488H376V371.31l32-32Zm-63.76-84.93L360,387.31V488H328V388.18ZM290.3,331.93l-12-11A128,128,0,1,0,40,256c0,68.18,53.64,123.94,120.92,127.64l-14,14.69A143.89,143.89,0,0,1,24,256c0-79.4,64.6-144,144-144s144,64.6,144,144a142.87,142.87,0,0,1-21.7,75.93ZM488,208a8,8,0,0,1-8,8H322.74A160.42,160.42,0,0,0,248,117.65V32a8,8,0,0,1,8-8h56V72H424V24h56a8,8,0,0,1,8,8Z" transform="translate(-8 -8)"></path><path class="cls-1" d="M392,184h16v16H392Z" transform="translate(-8 -8)"></path><path class="cls-1" d="M456,184h16v16H456Z" transform="translate(-8 -8)"></path><path class="cls-1" d="M424,184h16v16H424Z" transform="translate(-8 -8)"></path><path class="cls-1" d="M392,152h80v16H392Z" transform="translate(-8 -8)"></path></svg> 