<?xml version="1.0" encoding="UTF-8"?> <svg xmlns="http://www.w3.org/2000/svg" id="Capa_1" data-name="Capa 1" width="512" height="512" viewBox="0 0 512 512"><defs><style>.cls-1{fill:#673390;}</style></defs><path class="cls-1" d="M504.5,497H479.94V393.91a23.52,23.52,0,0,0-15.52-41.2H415.35l-7.57-121.23a7.51,7.51,0,0,0-7.49-7H368.23a7.51,7.51,0,0,0-7.49,7l-7.58,121.23h-18l-7.58-121.23a7.49,7.49,0,0,0-7.48-7H288.07a7.51,7.51,0,0,0-7.49,7L273,352.71H255l-7.58-121.23a7.49,7.49,0,0,0-7.48-7H207.9a7.5,7.5,0,0,0-7.48,7l-7.58,121.23H172l-4.64-209.1a7.5,7.5,0,0,0-7.5-7.34h-48.1a7.5,7.5,0,0,0-7.5,7.34L98.85,384.77H39.56A23.52,23.52,0,0,0,24.05,426v71H7.5a7.5,7.5,0,0,0,0,15h497a7.5,7.5,0,0,0,0-15ZM98.14,416.84H71.63a7.5,7.5,0,0,0,0,15H97.81L96.36,497H39.05V431.83h.51a7.5,7.5,0,0,0,0-15,8.54,8.54,0,0,1,0-17.07h59ZM375.27,239.45h18l7.08,113.26H368.19Zm-80.16,0h18l7.08,113.26H288Zm-80.16,0h18L240,352.71H207.87ZM128.26,497h-16.9L119,151.27h33.43L157,352.71H143.78a23.51,23.51,0,0,0-15.52,41.2ZM464.42,384.77h-16a7.5,7.5,0,0,0,0,15h16.55V497H143.26V399.76H416.33a7.5,7.5,0,0,0,0-15H143.77a8.53,8.53,0,1,1,0-17.06H464.42a8.53,8.53,0,0,1,0,17.06Z"></path><path class="cls-1" d="M416.32,0A95.11,95.11,0,0,0,355,22.33a71.4,71.4,0,0,0-93,6.27,55.48,55.48,0,0,0-72.87,28.78,34.19,34.19,0,0,0-9.22-1.27A35.53,35.53,0,0,0,146.27,80.3a23.13,23.13,0,0,0-2.5-.14,23.56,23.56,0,0,0-23.53,23.53,7.5,7.5,0,1,0,15,0,8.55,8.55,0,0,1,8.54-8.53,8.38,8.38,0,0,1,4.33,1.25,7.5,7.5,0,0,0,11.34-6,20.53,20.53,0,0,1,20.4-19.32,20.21,20.21,0,0,1,10,2.74,7.5,7.5,0,0,0,10.93-4.61,40.5,40.5,0,0,1,59.13-24.93,7.51,7.51,0,0,0,9.37-1.62,56.42,56.42,0,0,1,80.86-4.91,7.5,7.5,0,0,0,10.24-.15,80.62,80.62,0,1,1-14.91,96.64,7.51,7.51,0,0,0-9.73-3.22,56,56,0,0,1-23.63,5.22,56.58,56.58,0,0,1-42.83-19.67,7.51,7.51,0,0,0-9.37-1.62,40.46,40.46,0,0,1-52.12-10.66,7.48,7.48,0,0,0-5.91-2.93h0a7.53,7.53,0,0,0-5.91,2.87,20.38,20.38,0,0,1-16.09,8,7.5,7.5,0,0,0,0,15,35,35,0,0,0,21.67-7.47,55.42,55.42,0,0,0,60.42,10.94,71.49,71.49,0,0,0,50.17,20.58,70.51,70.51,0,0,0,23.61-4A95.68,95.68,0,1,0,416.32,0Z"></path><path class="cls-1" d="M191.87,416.84a7.5,7.5,0,0,0-7.5,7.5v16a7.5,7.5,0,0,0,15,0v-16A7.5,7.5,0,0,0,191.87,416.84Z"></path><path class="cls-1" d="M223.94,416.84a7.5,7.5,0,0,0-7.5,7.5v16a7.5,7.5,0,0,0,15,0v-16A7.5,7.5,0,0,0,223.94,416.84Z"></path><path class="cls-1" d="M256,416.84a7.5,7.5,0,0,0-7.5,7.5v16a7.5,7.5,0,0,0,15,0v-16A7.5,7.5,0,0,0,256,416.84Z"></path><path class="cls-1" d="M288.06,416.84a7.5,7.5,0,0,0-7.5,7.5v16a7.5,7.5,0,0,0,15,0v-16A7.5,7.5,0,0,0,288.06,416.84Z"></path><path class="cls-1" d="M320.13,416.84a7.5,7.5,0,0,0-7.5,7.5v16a7.5,7.5,0,0,0,15,0v-16A7.5,7.5,0,0,0,320.13,416.84Z"></path><path class="cls-1" d="M352.19,416.84a7.5,7.5,0,0,0-7.5,7.5v16a7.5,7.5,0,0,0,15,0v-16A7.5,7.5,0,0,0,352.19,416.84Z"></path><path class="cls-1" d="M384.26,416.84a7.5,7.5,0,0,0-7.5,7.5v16a7.5,7.5,0,0,0,15,0v-16A7.5,7.5,0,0,0,384.26,416.84Z"></path><path class="cls-1" d="M416.32,416.84a7.5,7.5,0,0,0-7.5,7.5v16a7.5,7.5,0,0,0,15,0v-16A7.5,7.5,0,0,0,416.32,416.84Z"></path></svg> 