<?xml version="1.0" encoding="UTF-8"?> <svg xmlns="http://www.w3.org/2000/svg" id="Layer_1" data-name="Layer 1" width="372" height="492" viewBox="0 0 372 492"><defs><style>.cls-1{fill:#673390;}</style></defs><path class="cls-1" d="M439.93,86.65a26.73,26.73,0,0,0-5.09-7.8l-56.13-60a27.84,27.84,0,0,0-8.6-6.19l-.34-.16A28.82,28.82,0,0,0,358,10H97.9C82.52,10,70,22,70,36.82V475.18C70,490,82.52,502,97.9,502H414.1c15.39,0,27.9-12,27.9-26.82V96.79a25.78,25.78,0,0,0-2.06-10.11Zm-16.64-2.58-43.78,4.3a16.35,16.35,0,0,1-13.42-5,13.94,13.94,0,0,1-3.78-11.64l9.08-43.08ZM430,475.18c0,8.17-7.14,14.82-15.9,14.82H97.9c-8.77,0-15.9-6.65-15.9-14.82V36.82C82,28.65,89.14,22,97.9,22H358a17.85,17.85,0,0,1,2.52.21l-10,47.2-.06.34a26.06,26.06,0,0,0,6.87,21.79,28.17,28.17,0,0,0,20.72,8.89c.84,0,1.69,0,2.55-.11l49.34-4.85q.06.66.06,1.32Z" transform="translate(-70 -10)"></path><path class="cls-1" d="M111.44,83.44H297.88a6,6,0,0,0,0-12H111.44a6,6,0,0,0,0,12Z" transform="translate(-70 -10)"></path><path class="cls-1" d="M111.44,131.86H297.88a6,6,0,0,0,0-12H111.44a6,6,0,1,0,0,12Z" transform="translate(-70 -10)"></path><path class="cls-1" d="M402.75,168.29H111.44a6,6,0,0,0,0,12H402.75a6,6,0,0,0,0-12Z" transform="translate(-70 -10)"></path><path class="cls-1" d="M402.75,216.71H111.44a6,6,0,1,0,0,12H402.75a6,6,0,0,0,0-12Z" transform="translate(-70 -10)"></path><path class="cls-1" d="M402.75,265.13H111.44a6,6,0,0,0,0,12H402.75a6,6,0,0,0,0-12Z" transform="translate(-70 -10)"></path><path class="cls-1" d="M402.75,313.55H111.44a6,6,0,0,0,0,12H402.75a6,6,0,0,0,0-12Z" transform="translate(-70 -10)"></path><path class="cls-1" d="M402.75,361.55H111.44a6,6,0,0,0,0,12H402.75a6,6,0,0,0,0-12Z" transform="translate(-70 -10)"></path><path class="cls-1" d="M205.4,437.39A25.68,25.68,0,0,1,192,440.94a24.57,24.57,0,0,1-11.08-2.78,17.07,17.07,0,0,1-3.68-2.64,10.69,10.69,0,0,0-7.25-3.31c-5.84-.18-9.08,4.13-11.43,7.26a22.11,22.11,0,0,1-5.73,5.88c-4.63,2.92-11.78,3.54-16.27,1.4a12.24,12.24,0,0,1-4.18-3.38A29,29,0,0,0,146,437.69a31.06,31.06,0,0,0,8.76-11.06c2.63-5.69,2.61-11.11-.08-15.26-2.25-3.5-6.34-5.89-11.5-6.75-6.89-1.14-14.47.6-19.31,4.43-5.4,4.27-8.36,11.7-8.22,20.31l-.39-.16a6,6,0,1,0-4.73,11h0a45.56,45.56,0,0,0,7.8,2.54c2.73,6.74,7.36,12.1,13.12,14.83A27.08,27.08,0,0,0,143,460a30.92,30.92,0,0,0,16.27-4.53,33,33,0,0,0,8.92-8.82c.45-.6,1-1.33,1.46-1.89a28.19,28.19,0,0,0,5.63,3.94,36.48,36.48,0,0,0,16.49,4.2,37.53,37.53,0,0,0,19.69-5.18,6,6,0,0,0-6-10.36Zm-77.59-5.6v-.11c-.67-5.83.71-11,3.5-13.22a12.83,12.83,0,0,1,7.58-2.19,14,14,0,0,1,2.33.19c2.26.37,3.2,1.15,3.37,1.42.6.93-1,6.42-6,10.36a18.1,18.1,0,0,1-10.76,3.55Z" transform="translate(-70 -10)"></path></svg> 