<?xml version="1.0" encoding="UTF-8"?> <svg xmlns="http://www.w3.org/2000/svg" id="Capa_1" data-name="Capa 1" width="480" height="480" viewBox="0 0 480 480"><defs><style>.cls-1{fill:#673390;}</style></defs><path class="cls-1" d="M208,152a24,24,0,0,0-24,24h16a8,8,0,0,1,16,0h16A24,24,0,0,0,208,152Z"></path><path class="cls-1" d="M272,152a24,24,0,0,0-24,24h16a8,8,0,0,1,16,0h16A24,24,0,0,0,272,152Z"></path><path class="cls-1" d="M432,464V360A120.13,120.13,0,0,0,312,240h-8.71a95.08,95.08,0,0,0,8.06-8H320a40,40,0,0,0,40-40V177.9a35.93,35.93,0,0,0-.1-59.86C358.84,52.78,305.51,0,240,0S121.16,52.78,120.1,118A36,36,0,0,0,140,184h5.45a95.82,95.82,0,0,0,31.27,56H168A120.13,120.13,0,0,0,48,360V464H0v16H480V464ZM344,192a24,24,0,0,1-20.79,23.67A95.18,95.18,0,0,0,334.55,184H340a35.18,35.18,0,0,0,4-.41Zm16-44a20,20,0,0,1-20,20h-4V128h4A20,20,0,0,1,360,148ZM144,168h-4a20,20,0,0,1,0-40h4Zm-4-56a33.37,33.37,0,0,0-3.62.37C140.32,58.58,185.23,16,240,16s99.68,42.58,103.62,96.37A33.37,33.37,0,0,0,340,112h-5.45a95.87,95.87,0,0,0-189.1,0Zm180,15.8c-57.73-2-96-25.64-96-47.8a8,8,0,0,0-16,0c0,20-20.67,36.56-47.54,39.5A80,80,0,0,1,320,127.8ZM160,168V135.55c25-2.17,46.18-14.21,56.77-31.09,16.73,22.18,55.85,37.79,103.23,39.38V168a79.49,79.49,0,0,1-16.15,48H240v16h47.79A79.95,79.95,0,0,1,160,168Zm55.27,92.66a93.22,93.22,0,0,0,49.46,0L240,310.11ZM227.06,320H212.94l-32-64h14.12Zm57.88-64h14.12l-32,64H252.94ZM88,360V464H64V360c0-55.72,44.08-101.21,99.18-103.75L195.06,320H128A40,40,0,0,0,88,360ZM376,464H104V360a24,24,0,0,1,24-24H352a24,24,0,0,1,24,24Zm40,0H392V360a40,40,0,0,0-40-40H284.94l31.88-63.75c55.1,2.54,99.18,48,99.18,103.75Z"></path><rect class="cls-1" x="344" y="392" width="16" height="56"></rect><rect class="cls-1" x="344" y="360" width="16" height="16"></rect><rect class="cls-1" x="416" y="72" width="16" height="16"></rect><rect class="cls-1" x="416" y="104" width="16" height="16"></rect><rect class="cls-1" x="416" y="136" width="16" height="16"></rect><rect class="cls-1" x="48" y="168" width="16" height="16"></rect><rect class="cls-1" x="48" y="200" width="16" height="16"></rect><rect class="cls-1" x="48" y="232" width="16" height="16"></rect><path class="cls-1" d="M248.71,366.28a41.73,41.73,0,0,1,10.17,6.3,2.87,2.87,0,0,0,3.68-4.41A47.73,47.73,0,0,0,251,361a2.87,2.87,0,1,0-2.29,5.26Z"></path><path class="cls-1" d="M272.2,392.84a2.87,2.87,0,1,0,5.51-1.63,47.33,47.33,0,0,0-6.16-13.08,2.87,2.87,0,0,0-4.76,3.21A41.6,41.6,0,0,1,272.2,392.84Z"></path><path class="cls-1" d="M276.79,401.87a2.86,2.86,0,0,0-2.87,2.87h0a41.93,41.93,0,1,1-42.73-41.9l-5.34,5.34a2.87,2.87,0,1,0,4.06,4.06l9.9-9.9.07-.08a1.83,1.83,0,0,0,.13-.16,1.94,1.94,0,0,0,.21-.29l.08-.15a2.43,2.43,0,0,0,.16-.37.56.56,0,0,0,0-.12,2.26,2.26,0,0,0,.1-.45v-.1a1.53,1.53,0,0,0,0-.3c0-.06,0-.11,0-.17s0-.07,0-.11a2.24,2.24,0,0,0-.07-.44s0-.08,0-.12a3.25,3.25,0,0,0-.15-.4l-.06-.11a2.74,2.74,0,0,0-.23-.36l-.09-.11a1.56,1.56,0,0,0-.16-.2l-9.9-9.9a2.87,2.87,0,0,0-4.06,4.06l4.68,4.65a47.66,47.66,0,1,0,49.14,47.63A2.88,2.88,0,0,0,276.79,401.87Z"></path><path class="cls-1" d="M216.17,405.56l-10.25,7.66v5.61H227.5v-6.17h-11l4.36-3.11c4.83-3.3,6.37-6.17,6.37-9.84,0-5.28-4.36-9.07-10.57-9.07a13.77,13.77,0,0,0-11.09,5.44l4.32,4.28a8.81,8.81,0,0,1,6.61-3.47,3.32,3.32,0,0,1,3.66,2.93c0,.06,0,.11,0,.17C220.16,401.7,219.27,403.23,216.17,405.56Z"></path><path class="cls-1" d="M234.59,413.55H248v5.28h6.89v-5.28h3.51v-5.73h-3.5V391.17h-8.39L234,408.31ZM248,398.31v9.51h-6.89Z"></path></svg> 