<?xml version="1.0" encoding="UTF-8"?> <svg xmlns="http://www.w3.org/2000/svg" id="Layer_5" data-name="Layer 5" width="496" height="496" viewBox="0 0 496 496"><defs><style>.cls-1{fill:#673390;}</style></defs><path class="cls-1" d="M460.94,296H400V249.66l-21.08-5a126.92,126.92,0,0,0-11.05-26.65l11.4-18.42-18.18-18.18,42.57-53.23a56,56,0,1,0-26.44-59.77L239.78,59.58a55.89,55.89,0,1,0-1,16l137.44,8.87a55.76,55.76,0,0,0,15,33.8l-41.47,51.84-13.33-13.33L318,168.13a127.57,127.57,0,0,0-26.66-11.06l-5-21.07H225.66l-5,21.07a127,127,0,0,0-26.65,11.06l-18.42-11.4-42.9,42.9,11.4,18.42a127.49,127.49,0,0,0-11.06,26.65l-21.07,5V296H51.06l-40,80H48V504H464V376h36.94ZM432,40a40,40,0,1,1-40,40A40,40,0,0,1,432,40ZM184,104a40,40,0,1,1,40-40A40,40,0,0,1,184,104ZM475.06,360H308.94l-24-48H451.06ZM228.38,296A31.61,31.61,0,0,1,224,280a32,32,0,0,1,64,0,31.7,31.7,0,0,1-4.37,16Zm-50.59,0A80.94,80.94,0,0,1,176,280a80,80,0,1,1,158.21,16h-33a48,48,0,1,0-90.43,0ZM128,262.34l18.18-4.28,1.16-4.76a111.17,111.17,0,0,1,13-31.24l2.54-4.19L153,202l25-25,15.89,9.83,4.19-2.54a111.08,111.08,0,0,1,31.23-12.95l4.76-1.17L238.34,152h35.32l4.28,18.18,4.76,1.16a111.17,111.17,0,0,1,31.24,13l4.19,2.54L334,177l25,25-9.83,15.89,2.54,4.19a111.25,111.25,0,0,1,13,31.23l1.17,4.76L384,262.34V296H350.62A97.17,97.17,0,0,0,352,280a96,96,0,0,0-192,0,97.17,97.17,0,0,0,1.38,16H128ZM60.94,312H243.06l-24,48H36.94ZM64,376H228.94L256,321.89V488H64ZM448,488H272V321.89L299.06,376H448Z" transform="translate(-8 -8)"></path><path class="cls-1" d="M432,104a24,24,0,1,0-24-24A24,24,0,0,0,432,104Zm0-32a8,8,0,1,1-8,8A8,8,0,0,1,432,72Z" transform="translate(-8 -8)"></path><path class="cls-1" d="M184,40a24,24,0,1,0,24,24A24,24,0,0,0,184,40Zm0,32a8,8,0,1,1,8-8A8,8,0,0,1,184,72Z" transform="translate(-8 -8)"></path><path class="cls-1" d="M48,200h72V160a40,40,0,0,0-40-40H48a40,40,0,0,0,0,80Zm0-64H80a24,24,0,0,1,24,24v24H48a24,24,0,0,1,0-48Z" transform="translate(-8 -8)"></path><path class="cls-1" d="M40,152H56v16H40Z" transform="translate(-8 -8)"></path><path class="cls-1" d="M72,152H88v16H72Z" transform="translate(-8 -8)"></path><path class="cls-1" d="M432,152a40,40,0,0,0-40,40v40h72a40,40,0,0,0,0-80Zm56,40a24,24,0,0,1-24,24H408V192a24,24,0,0,1,24-24h32A24,24,0,0,1,488,192Z" transform="translate(-8 -8)"></path><path class="cls-1" d="M456,184h16v16H456Z" transform="translate(-8 -8)"></path><path class="cls-1" d="M424,184h16v16H424Z" transform="translate(-8 -8)"></path><path class="cls-1" d="M80,392v80H240V392Zm144,64H96V408H224Z" transform="translate(-8 -8)"></path><path class="cls-1" d="M192,424h16v16H192Z" transform="translate(-8 -8)"></path><path class="cls-1" d="M160,424h16v16H160Z" transform="translate(-8 -8)"></path><path class="cls-1" d="M128,424h16v16H128Z" transform="translate(-8 -8)"></path><path class="cls-1" d="M416,456h16v16H416Z" transform="translate(-8 -8)"></path><path class="cls-1" d="M384,456h16v16H384Z" transform="translate(-8 -8)"></path><path class="cls-1" d="M352,456h16v16H352Z" transform="translate(-8 -8)"></path><path class="cls-1" d="M352,424h80v16H352Z" transform="translate(-8 -8)"></path></svg> 