<?xml version="1.0" encoding="UTF-8"?> <svg xmlns="http://www.w3.org/2000/svg" id="Layer_5" data-name="Layer 5" width="496" height="496" viewBox="0 0 496 496"><defs><style>.cls-1{fill:#673390;}</style></defs><path class="cls-1" d="M504,40V24A16,16,0,0,0,488,8H24A16,16,0,0,0,8,24V40A16,16,0,0,0,24,56V360A16,16,0,0,0,8,376v16a16,16,0,0,0,16,16H172.9l-32,96h64.86l32-96h36.46l32,96h64.87l-32-96H488a16,16,0,0,0,16-16V376a16,16,0,0,0-16-16V56A16,16,0,0,0,504,40ZM24,24H488V40H24ZM40,216H72V328H40ZM194.23,488H163.1l26.67-80H220.9Zm154.67,0H317.77L291.1,408h31.14ZM488,392H24V376H488Zm-16-32H40V344H88V328h6.7l15.38,5.13A56,56,0,0,0,127.79,336H240a24,24,0,0,0,23.63-20.36l1.69-.87a120.53,120.53,0,0,0,17.83,7.35l7,21.88h59.67l7-21.87a120.53,120.53,0,0,0,17.83-7.35l20.38,10.48,42.2-42.18-10.5-20.39a119.46,119.46,0,0,0,7.35-17.83l21.89-7V178.16l-21.87-7a120.78,120.78,0,0,0-7.35-17.83l10.49-20.39L395.08,90.74l-20.39,10.49a120.53,120.53,0,0,0-17.83-7.35l-7-21.88H290.16l-7,21.87a120.53,120.53,0,0,0-17.83,7.35L244.93,90.73l-42.19,42.19,10.49,20.39a120.17,120.17,0,0,0-7.4,18L192,176.17V128a32,32,0,0,0-32-32,16,16,0,0,0-16,16v43.16a60.46,60.46,0,0,1-56,60.49V200H40V56H472ZM88,231.65a76.35,76.35,0,0,0,72-76.49V112a16,16,0,0,1,16,16v56a24,24,0,0,0,24,24h40a8,8,0,0,1,0,16H216v16h24a8,8,0,0,1,0,16H216v16h24a8,8,0,0,1,0,16H216v16h24a8,8,0,0,1,0,16H127.79A39.9,39.9,0,0,1,115.14,318L97.3,312H88ZM222.3,136,248,110.3l17.56,9,3.75-2.11A104,104,0,0,1,291.66,108l4.14-1.17,6-18.85h36.33l6,18.85,4.14,1.17a104,104,0,0,1,22.36,9.21l3.75,2.11,17.56-9L417.7,136l-9,17.55,2.1,3.76A102.65,102.65,0,0,1,420,179.67l1.17,4.14,18.85,6v36.33l-18.85,6L420,236.33a102.62,102.62,0,0,1-9.22,22.37l-2.1,3.75,9,17.56L392,305.7l-17.56-9-3.75,2.11A104,104,0,0,1,348.34,308l-4.14,1.17-6,18.85H301.84l-6-18.85L291.66,308a104,104,0,0,1-22.36-9.21l-3.75-2.11-5.24,2.7a23.84,23.84,0,0,0-2.56-3.36A23.81,23.81,0,0,0,264,280a24.29,24.29,0,0,0-.46-4.62,87.95,87.95,0,1,0-30-83.38H200a7.63,7.63,0,0,1-3-.62l21.92-7.72,1.13-4a103.14,103.14,0,0,1,9.22-22.37l2.1-3.76Zm27.08,57.92a72.22,72.22,0,1,1,14.16,58.58A23.32,23.32,0,0,0,257.76,232a23.86,23.86,0,0,0-8.38-38.09Z" transform="translate(-8 -8)"></path><path class="cls-1" d="M320,264a56,56,0,1,0-56-56A56.07,56.07,0,0,0,320,264Zm0-96a40,40,0,1,1-40,40A40,40,0,0,1,320,168Z" transform="translate(-8 -8)"></path><path class="cls-1" d="M56,72h72V88H56Z" transform="translate(-8 -8)"></path><path class="cls-1" d="M56,104h72v16H56Z" transform="translate(-8 -8)"></path><path class="cls-1" d="M56,136h72v16H56Z" transform="translate(-8 -8)"></path></svg> 