<?xml version="1.0" encoding="UTF-8"?> <svg xmlns="http://www.w3.org/2000/svg" width="118" height="58" viewBox="0 0 118 58" fill="none"><mask id="mask0_1071_479" style="mask-type:luminance" maskUnits="userSpaceOnUse" x="0" y="0" width="118" height="57"><path d="M117.8 0H0V57H117.8V0Z" fill="white"></path></mask><g mask="url(#mask0_1071_479)"><path d="M111.9 57.2H6.1C2.7 57.2 0 54.5 0 51.1V6.2C0 2.8 2.7 0 6.1 0H111.9C115.3 0 118 2.7 118 6.1V51C118 54.4 115.3 57.2 111.9 57.2ZM6.1 2C3.8 2 1.9 3.9 1.9 6.2V51.1C1.9 53.4 3.8 55.3 6.1 55.3H111.9C114.2 55.3 116.1 53.4 116.1 51.1V6.2C116.1 3.9 114.2 2 111.9 2H6.1Z" fill="#673491"></path></g><mask id="mask1_1071_479" style="mask-type:luminance" maskUnits="userSpaceOnUse" x="0" y="0" width="118" height="57"><path d="M117.8 0H0V57H117.8V0Z" fill="white"></path></mask><g mask="url(#mask1_1071_479)"><path d="M109.301 51.1012H8.70156C7.30156 51.1012 6.10156 49.9012 6.10156 48.5012V8.80117C6.10156 7.40117 7.30156 6.20117 8.70156 6.20117H109.301C110.701 6.20117 111.901 7.40117 111.901 8.80117V48.5012C111.901 49.9012 110.701 51.1012 109.301 51.1012ZM8.70156 8.10117C8.30156 8.10117 8.00156 8.40117 8.00156 8.80117V48.5012C8.00156 48.9012 8.30156 49.2012 8.70156 49.2012H109.301C109.701 49.2012 110.001 48.9012 110.001 48.5012V8.80117C110.001 8.40117 109.701 8.10117 109.301 8.10117H8.70156Z" fill="#673491"></path></g><mask id="mask2_1071_479" style="mask-type:luminance" maskUnits="userSpaceOnUse" x="0" y="0" width="118" height="57"><path d="M117.8 0H0V57H117.8V0Z" fill="white"></path></mask><g mask="url(#mask2_1071_479)"><path d="M101.701 41.2012H16.3008C15.8008 41.2012 15.3008 40.8012 15.3008 40.2012C15.3008 39.7012 15.7008 39.2012 16.3008 39.2012H101.701C102.201 39.2012 102.701 39.6012 102.701 40.2012C102.701 40.7012 102.301 41.2012 101.701 41.2012Z" fill="#673491"></path></g><mask id="mask3_1071_479" style="mask-type:luminance" maskUnits="userSpaceOnUse" x="0" y="0" width="118" height="57"><path d="M117.8 0H0V57H117.8V0Z" fill="white"></path></mask><g mask="url(#mask3_1071_479)"><path d="M65.0008 24.9996C65.0008 25.4996 64.6008 25.8996 64.1008 25.8996H58.7008C58.2008 25.8996 57.8008 25.4996 57.8008 24.9996C57.8008 24.4996 58.2008 24.0996 58.7008 24.0996H64.1008C64.6008 24.0996 65.0008 24.4996 65.0008 24.9996Z" fill="#673491"></path></g><mask id="mask4_1071_479" style="mask-type:luminance" maskUnits="userSpaceOnUse" x="0" y="0" width="118" height="57"><path d="M117.8 0H0V57H117.8V0Z" fill="white"></path></mask><g mask="url(#mask4_1071_479)"><path d="M19.5991 27.7988L18.1991 31.9988C18.0991 32.3988 17.6991 32.6988 17.2991 32.6988C16.5991 32.6988 16.1991 31.9988 16.3991 31.3988L20.7991 18.3988C20.9991 17.6988 21.6991 17.2988 22.3991 17.2988C23.0991 17.2988 23.7991 17.7988 23.9991 18.3988L28.3991 31.3988C28.5991 31.9988 28.0991 32.6988 27.4991 32.6988H27.3991C26.9991 32.6988 26.5991 32.3988 26.4991 31.9988L24.9991 27.7988H19.5991ZM24.5991 26.2988C24.5991 26.2988 22.5991 19.9988 22.2991 19.0988L19.9991 26.2988H24.5991Z" fill="#673491"></path></g><mask id="mask5_1071_479" style="mask-type:luminance" maskUnits="userSpaceOnUse" x="0" y="0" width="118" height="57"><path d="M117.8 0H0V57H117.8V0Z" fill="white"></path></mask><g mask="url(#mask5_1071_479)"><path d="M41.2984 31.5C41.3984 31.9 41.1984 32.4 40.7984 32.5C39.9984 32.8 38.7984 32.9 37.4984 32.9C33.1984 32.9 29.8984 30.2 29.8984 25.1C29.8984 20.3 33.1984 17 37.8984 17C39.1984 17 40.1984 17.2 40.7984 17.4C41.1984 17.5 41.4984 18 41.2984 18.4V18.5C41.1984 18.9 40.6984 19.2 40.2984 19C39.5984 18.8 38.8984 18.7 37.9984 18.7C34.3984 18.7 31.9984 21 31.9984 25C31.9984 28.8 34.1984 31.2 37.8984 31.2C38.7984 31.2 39.5984 31.1 40.2984 30.9C40.6984 30.8 41.1984 31 41.2984 31.5Z" fill="#673491"></path></g><mask id="mask6_1071_479" style="mask-type:luminance" maskUnits="userSpaceOnUse" x="0" y="0" width="118" height="57"><path d="M117.8 0H0V57H117.8V0Z" fill="white"></path></mask><g mask="url(#mask6_1071_479)"><path d="M44.9984 17.2988H51.3984C51.8984 17.2988 52.1984 17.6988 52.1984 18.0988C52.1984 18.4988 51.8984 18.9988 51.3984 18.9988H45.8984V24.0988H50.8984C51.3984 24.0988 51.6984 24.4988 51.6984 24.8988C51.6984 25.3988 51.2984 25.6988 50.8984 25.6988H45.8984V31.6988C45.8984 32.1988 45.4984 32.6988 44.8984 32.6988C44.3984 32.6988 43.8984 32.2988 43.8984 31.6988V18.2988C43.8984 17.7988 44.3984 17.2988 44.9984 17.2988Z" fill="#673491"></path></g><mask id="mask7_1071_479" style="mask-type:luminance" maskUnits="userSpaceOnUse" x="0" y="0" width="118" height="57"><path d="M117.8 0H0V57H117.8V0Z" fill="white"></path></mask><g mask="url(#mask7_1071_479)"><path d="M69.1016 31.8C69.1016 31.6 69.2016 31.3 69.4016 31.2L70.7016 29.9C74.5016 26.3 76.2016 24.4 76.2016 22.1C76.2016 20.6 75.5016 19.2 73.3016 19.2C72.4016 19.2 71.5016 19.5 70.9016 19.9C70.5016 20.1 70.0016 20 69.8016 19.6C69.6016 19.3 69.8016 18.9 70.1016 18.6C71.1016 17.9 72.3016 17.5 73.8016 17.5C77.0016 17.5 78.3016 19.7 78.3016 21.8C78.3016 24.5 76.3016 26.8 73.2016 29.8L72.0016 31H77.8016C78.3016 31 78.6016 31.4 78.6016 31.8C78.6016 32.3 78.2016 32.6 77.8016 32.6H70.0016C69.5016 32.7 69.1016 32.3 69.1016 31.8Z" fill="#673491"></path></g><mask id="mask8_1071_479" style="mask-type:luminance" maskUnits="userSpaceOnUse" x="0" y="0" width="118" height="57"><path d="M117.8 0H0V57H117.8V0Z" fill="white"></path></mask><g mask="url(#mask8_1071_479)"><path d="M87.0992 31.6988V28.5988H81.1992C80.5992 28.5988 80.1992 28.0988 80.1992 27.5988C80.1992 27.3988 80.2992 27.1988 80.3992 26.9988L86.3992 18.3988C86.6992 17.9988 87.0992 17.7988 87.5992 17.7988C88.3992 17.7988 88.9992 18.3988 88.9992 19.1988V26.9988H90.2992C90.6992 26.9988 91.0992 27.3988 91.0992 27.7988C91.0992 28.1988 90.6992 28.5988 90.2992 28.5988H88.9992V31.6988C88.9992 32.1988 88.5992 32.5988 88.0992 32.5988C87.4992 32.6988 87.0992 32.1988 87.0992 31.6988ZM87.0992 27.0988C87.0992 27.0988 87.0992 20.8988 87.1992 20.1988L82.1992 26.9988H87.0992V27.0988Z" fill="#673491"></path></g><mask id="mask9_1071_479" style="mask-type:luminance" maskUnits="userSpaceOnUse" x="0" y="0" width="118" height="57"><path d="M117.8 0H0V57H117.8V0Z" fill="white"></path></mask><g mask="url(#mask9_1071_479)"><path d="M100.6 19.4988H96.1997C95.9997 19.4988 95.7997 19.6988 95.6997 19.8988L95.1997 22.9988C95.1997 23.0988 95.2997 23.2988 95.3997 23.2988C95.6997 23.2988 95.8997 23.1988 96.2997 23.1988C97.3997 23.1988 98.5997 23.4988 99.4997 23.9988C100.7 24.6988 101.6 25.8988 101.6 27.7988C101.6 30.6988 99.2997 32.8988 96.0997 32.8988C94.8997 32.8988 93.7997 32.6988 93.0997 32.2988C92.6997 32.0988 92.4997 31.6988 92.5997 31.2988C92.6997 30.8988 93.1997 30.5988 93.6997 30.7988C94.2997 30.9988 95.1997 31.2988 96.0997 31.2988C97.9997 31.2988 99.5997 30.0988 99.5997 28.0988C99.5997 26.1988 98.2997 24.7988 95.2997 24.7988C94.9997 24.7988 94.6997 24.7988 94.4997 24.7988C93.8997 24.7988 93.2997 24.2988 93.3997 23.5988L93.9997 19.0988C94.0997 18.2988 94.6997 17.7988 95.4997 17.7988H100.4C100.9 17.7988 101.2 18.1988 101.2 18.5988C101.4 19.0988 101 19.4988 100.6 19.4988Z" fill="#673491"></path></g></svg> 