<?xml version="1.0" encoding="UTF-8"?> <svg xmlns="http://www.w3.org/2000/svg" width="61" height="61" viewBox="0 0 61 61" fill="none"><g clip-path="url(#clip0_1071_545)"><mask id="mask0_1071_545" style="mask-type:luminance" maskUnits="userSpaceOnUse" x="0" y="0" width="61" height="61"><path d="M60.8 0H0V60.8H60.8V0Z" fill="white"></path></mask><g mask="url(#mask0_1071_545)"><mask id="mask1_1071_545" style="mask-type:luminance" maskUnits="userSpaceOnUse" x="0" y="0" width="61" height="61"><path d="M60.8 0H0V60.8H60.8V0Z" fill="white"></path></mask><g mask="url(#mask1_1071_545)"><path d="M31.5016 50.6996V28.2996L49.5016 19.6996V42.0996L31.5016 50.6996ZM11.1016 19.6996L29.1016 28.2996V50.6996L11.1016 42.0996V19.6996ZM30.3016 9.39961L47.9016 17.7996L30.3016 26.1996L12.7016 17.7996L30.3016 9.39961ZM52.0016 42.7996V17.7996C52.0016 17.2996 51.7016 16.8996 51.3016 16.6996L30.8016 6.99961C30.5016 6.79961 30.1016 6.79961 29.8016 6.99961L9.30156 16.6996C8.90156 16.8996 8.60156 17.2996 8.60156 17.7996V42.7996C8.60156 43.2996 8.90156 43.6996 9.30156 43.8996L29.8016 53.5996C30.0016 53.6996 30.1016 53.6996 30.3016 53.6996C30.5016 53.6996 30.7016 53.6996 30.8016 53.5996L51.3016 43.8996C51.7016 43.6996 52.0016 43.2996 52.0016 42.7996Z" fill="#673491"></path></g><mask id="mask2_1071_545" style="mask-type:luminance" maskUnits="userSpaceOnUse" x="0" y="0" width="61" height="61"><path d="M60.8 0H0V60.8H60.8V0Z" fill="white"></path></mask><g mask="url(#mask2_1071_545)"><path d="M14.9 58.2H6.1C4.1 58.2 2.4 56.5 2.4 54.5V45.7C2.4 45 1.9 44.5 1.2 44.5C0.5 44.5 0 45.1 0 45.7V54.5C0 57.9 2.7 60.6 6.1 60.6H14.9C15.6 60.6 16.1 60.1 16.1 59.4C16.1 58.8 15.6 58.2 14.9 58.2Z" fill="#673491"></path></g><mask id="mask3_1071_545" style="mask-type:luminance" maskUnits="userSpaceOnUse" x="0" y="0" width="61" height="61"><path d="M60.8 0H0V60.8H60.8V0Z" fill="white"></path></mask><g mask="url(#mask3_1071_545)"><path d="M54.5 0H45.7C45 0 44.5 0.5 44.5 1.2C44.5 1.9 45 2.4 45.7 2.4H54.5C56.5 2.4 58.2 4.1 58.2 6.1V14.9C58.2 15.6 58.7 16.1 59.4 16.1C60.1 16.1 60.6 15.6 60.6 14.9V6.1C60.6 2.7 57.9 0 54.5 0Z" fill="#673491"></path></g><mask id="mask4_1071_545" style="mask-type:luminance" maskUnits="userSpaceOnUse" x="0" y="0" width="61" height="61"><path d="M60.8 0H0V60.8H60.8V0Z" fill="white"></path></mask><g mask="url(#mask4_1071_545)"><path d="M1.2 16.1C1.9 16.1 2.4 15.6 2.4 14.9V6.1C2.4 4.1 4.1 2.4 6.1 2.4H14.9C15.6 2.4 16.1 1.9 16.1 1.2C16.1 0.5 15.6 0 14.9 0H6.1C2.7 0 0 2.7 0 6.1V14.9C0 15.6 0.5 16.1 1.2 16.1Z" fill="#673491"></path></g><mask id="mask5_1071_545" style="mask-type:luminance" maskUnits="userSpaceOnUse" x="0" y="0" width="61" height="61"><path d="M60.8 0H0V60.8H60.8V0Z" fill="white"></path></mask><g mask="url(#mask5_1071_545)"><path d="M59.4 44.5C58.7 44.5 58.2 45 58.2 45.7V54.5C58.2 56.5 56.5 58.2 54.5 58.2H45.7C45 58.2 44.5 58.7 44.5 59.4C44.5 60.1 45 60.6 45.7 60.6H54.5C57.9 60.6 60.6 57.9 60.6 54.5V45.7C60.6 45.1 60.1 44.5 59.4 44.5Z" fill="#673491"></path></g></g></g><defs><clipPath id="clip0_1071_545"><rect width="61" height="61" fill="white"></rect></clipPath></defs></svg> 