<?xml version="1.0" encoding="UTF-8"?> <svg xmlns="http://www.w3.org/2000/svg" width="64" height="64" viewBox="0 0 64 64" fill="none"><g clip-path="url(#clip0_1071_772)"><mask id="mask0_1071_772" style="mask-type:luminance" maskUnits="userSpaceOnUse" x="0" y="0" width="64" height="64"><path d="M63.8 0H0V63.8H63.8V0Z" fill="white"></path></mask><g mask="url(#mask0_1071_772)"><mask id="mask1_1071_772" style="mask-type:luminance" maskUnits="userSpaceOnUse" x="0" y="0" width="64" height="64"><path d="M63.8 0H0V63.8H63.8V0Z" fill="white"></path></mask><g mask="url(#mask1_1071_772)"><path d="M51.7016 33C51.6016 32.2 50.9016 31.5 50.1016 31.5H49.0016C50.9016 29.1 53.0016 24 48.1016 15.3C40.7016 1.9 22.9016 7.9 19.7016 9.3C16.5016 10.7 19.2016 12.6 19.2016 12.6C10.8016 17.1 12.5016 27.3 13.7016 31.5C12.9016 31.5 12.2016 32.2 12.1016 33V33.1V35.4C12.1016 35.5 12.1016 35.5 12.1016 35.6C12.2016 37.7 13.7016 39.4 15.6016 39.8C15.6016 40.1 15.6016 40.4 15.7016 40.7C16.1016 45.4 18.5016 49.8 22.3016 52.6L25.4016 54.8C27.3016 56.2 29.5016 56.9 31.9016 56.9C34.3016 56.9 36.5016 56.2 38.4016 54.8L41.5016 52.6C45.3016 49.8 47.8016 45.5 48.1016 40.7C48.1016 40.4 48.1016 40.1 48.2016 39.8C50.2016 39.4 51.7016 37.6 51.7016 35.6C51.7016 35.5 51.7016 35.5 51.7016 35.4V33.1V33ZM45.2016 40.5C44.9016 44.4 42.9016 48 39.7016 50.3L36.6016 52.5C35.2016 53.5 33.5016 54.1 31.8016 54.1C30.1016 54.1 28.4016 53.6 27.0016 52.5L24.0016 50.3C20.8016 48 18.8016 44.4 18.5016 40.5C18.4016 38.7 18.2016 37.1 18.1016 35.6C18.0016 34.6 18.0016 33.7 17.9016 32.9C17.8016 32 17.8016 31.2 17.8016 30.5C21.9016 26.4 23.4016 21.1 23.4016 21.1C26.4016 23.4 33.0016 23.2 37.0016 22.8C39.1016 22.6 41.2016 23.6 42.3016 25.5L45.9016 31.5C45.9016 31.9 45.8016 32.4 45.8016 33C45.7016 33.8 45.7016 34.7 45.6016 35.7C45.5016 37.1 45.3016 38.7 45.2016 40.5Z" fill="#673491"></path></g><mask id="mask2_1071_772" style="mask-type:luminance" maskUnits="userSpaceOnUse" x="0" y="0" width="64" height="64"><path d="M63.8 0H0V63.8H63.8V0Z" fill="white"></path></mask><g mask="url(#mask2_1071_772)"><path d="M5.1 0C2.3 0 0 2.3 0 5.1V17H3.4V5.1C3.4 4.2 4.1 3.5 5 3.5H17V0H5.1ZM58.6 0H46.7V3.4H58.6C59.5 3.4 60.2 4.1 60.2 5V17H63.6V5.1C63.7 2.3 61.4 0 58.6 0ZM60.3 46.7V58.6C60.3 59.5 59.6 60.2 58.7 60.2H46.7V63.6H58.6C61.4 63.6 63.7 61.3 63.7 58.5V46.7H60.3ZM3.4 58.6V46.7H0V58.6C0 61.4 2.3 63.7 5.1 63.7H17V60.3H5.1C4.2 60.3 3.4 59.5 3.4 58.6Z" fill="#673491"></path></g></g></g><defs><clipPath id="clip0_1071_772"><rect width="64" height="64" fill="white"></rect></clipPath></defs></svg> 