<?xml version="1.0" encoding="UTF-8"?> <svg xmlns="http://www.w3.org/2000/svg" width="69" height="69" viewBox="0 0 69 69" fill="none"><g clip-path="url(#clip0_1071_712)"><mask id="mask0_1071_712" style="mask-type:luminance" maskUnits="userSpaceOnUse" x="0" y="0" width="69" height="69"><path d="M68.3 0H0V68.3H68.3V0Z" fill="white"></path></mask><g mask="url(#mask0_1071_712)"><mask id="mask1_1071_712" style="mask-type:luminance" maskUnits="userSpaceOnUse" x="0" y="0" width="69" height="69"><path d="M68.3 0H0V68.3H68.3V0Z" fill="white"></path></mask><g mask="url(#mask1_1071_712)"><path d="M34.1016 25.6004C31.7016 25.6004 29.8016 27.5004 29.8016 29.9004C29.8016 32.3004 31.7016 34.2004 34.1016 34.2004C36.5016 34.2004 38.4016 32.3004 38.4016 29.9004C38.4016 27.5004 36.5016 25.6004 34.1016 25.6004ZM34.1016 38.4004C29.4016 38.4004 25.6016 34.6004 25.6016 29.9004C25.6016 25.2004 29.4016 21.4004 34.1016 21.4004C38.8016 21.4004 42.6016 25.2004 42.6016 29.9004C42.6016 34.6004 38.8016 38.4004 34.1016 38.4004Z" fill="#673491"></path></g><mask id="mask2_1071_712" style="mask-type:luminance" maskUnits="userSpaceOnUse" x="0" y="0" width="69" height="69"><path d="M68.3 0H0V68.3H68.3V0Z" fill="white"></path></mask><g mask="url(#mask2_1071_712)"><path d="M27.7 46.8996H40.5V44.1996C40.5 40.9996 37.9 38.3996 34.7 38.3996H33.5C30.3 38.3996 27.7 40.9996 27.7 44.1996V46.8996ZM42.6 51.1996H25.6C24.4 51.1996 23.5 50.1996 23.5 49.0996V44.1996C23.5 38.5996 28 34.0996 33.6 34.0996H34.8C40.4 34.0996 44.9 38.5996 44.9 44.1996V48.9996C44.8 50.1996 43.8 51.1996 42.6 51.1996Z" fill="#673491"></path></g><mask id="mask3_1071_712" style="mask-type:luminance" maskUnits="userSpaceOnUse" x="0" y="0" width="69" height="69"><path d="M68.3 0H0V68.3H68.3V0Z" fill="white"></path></mask><g mask="url(#mask3_1071_712)"><path d="M19.3 44.8004H17.1C15.9 44.8004 15 43.8004 15 42.7004V37.8004C15 34.9004 16.2 32.2004 18.3 30.3004C17.4 29.0004 17 27.5004 17 25.9004C17 21.2004 20.8 17.4004 25.5 17.4004C26 17.4004 26.5 17.4004 26.9 17.5004C28.1 17.7004 28.8 18.9004 28.6 20.0004C28.4 21.2004 27.2 21.9004 26.1 21.7004C25.9 21.7004 25.7 21.7004 25.5 21.7004C23.1 21.7004 21.2 23.6004 21.2 26.0004C21.2 27.2004 21.7 28.4004 22.7 29.2004C23.2 29.7004 23.5 30.4004 23.4 31.1004C23.3 31.8004 22.9 32.4004 22.3 32.8004C20.4 33.8004 19.1 35.8004 19.1 38.0004L19.2 40.7004C20.4 40.7004 21.3 41.7004 21.3 42.8004C21.3 43.9004 20.5 44.8004 19.3 44.8004Z" fill="#673491"></path></g><mask id="mask4_1071_712" style="mask-type:luminance" maskUnits="userSpaceOnUse" x="0" y="0" width="69" height="69"><path d="M68.3 0H0V68.3H68.3V0Z" fill="white"></path></mask><g mask="url(#mask4_1071_712)"><path d="M51.1987 44.7988H48.9987C47.7987 44.7988 46.8987 43.7988 46.8987 42.6988C46.8987 41.4988 47.8987 40.5988 48.9987 40.5988V37.8988C48.9987 35.6988 47.7987 33.6988 45.7987 32.6988C45.1987 32.3988 44.6987 31.7988 44.6987 30.9988C44.5987 30.2988 44.8987 29.5988 45.3987 29.0988C46.2987 28.2988 46.8987 27.0988 46.8987 25.8988C46.8987 23.4988 44.9987 21.5988 42.5987 21.5988C42.3987 21.5988 42.1987 21.5988 41.9987 21.5988C40.7987 21.7988 39.6987 21.0988 39.4987 19.8988C39.2987 18.6988 39.9987 17.5988 41.1987 17.3988C41.6987 17.2988 42.0987 17.2988 42.5987 17.2988C47.2987 17.2988 51.0987 21.0988 51.0987 25.7988C51.0987 27.3988 50.6987 28.8988 49.8987 30.1988C51.9987 32.0988 53.1987 34.7988 53.1987 37.6988V42.5988C53.2987 43.7988 52.3987 44.7988 51.1987 44.7988Z" fill="#673491"></path></g><mask id="mask5_1071_712" style="mask-type:luminance" maskUnits="userSpaceOnUse" x="0" y="0" width="69" height="69"><path d="M68.3 0H0V68.3H68.3V0Z" fill="white"></path></mask><g mask="url(#mask5_1071_712)"><path d="M34.1007 8.50117C20.0007 8.50117 8.50078 20.0012 8.50078 34.1012C8.50078 48.2012 20.0007 59.7012 34.1007 59.7012C48.2007 59.7012 59.7008 48.2012 59.7008 34.1012C59.7008 20.0012 48.2007 8.50117 34.1007 8.50117ZM34.1007 64.0012C17.7007 64.0012 4.30078 50.6012 4.30078 34.1012C4.30078 17.6012 17.7008 4.20117 34.2008 4.20117C50.6007 4.30117 64.0007 17.7012 64.0007 34.1012C64.0007 50.6012 50.6007 64.0012 34.1007 64.0012Z" fill="#673491"></path></g><mask id="mask6_1071_712" style="mask-type:luminance" maskUnits="userSpaceOnUse" x="0" y="0" width="69" height="69"><path d="M68.3 0H0V68.3H68.3V0Z" fill="white"></path></mask><g mask="url(#mask6_1071_712)"><path d="M34.1 12.8C32.9 12.8 32 11.8 32 10.7V2.1C32 1 32.9 0 34.1 0C35.3 0 36.2 1 36.2 2.1V10.6C36.3 11.8 35.3 12.8 34.1 12.8Z" fill="#673491"></path></g><mask id="mask7_1071_712" style="mask-type:luminance" maskUnits="userSpaceOnUse" x="0" y="0" width="69" height="69"><path d="M68.3 0H0V68.3H68.3V0Z" fill="white"></path></mask><g mask="url(#mask7_1071_712)"><path d="M10.7 36.3H2.1C0.9 36.3 0 35.3 0 34.2C0 32.9 1 32 2.1 32H10.6C11.8 32 12.7 33 12.7 34.1C12.8 35.3 11.8 36.3 10.7 36.3Z" fill="#673491"></path></g><mask id="mask8_1071_712" style="mask-type:luminance" maskUnits="userSpaceOnUse" x="0" y="0" width="69" height="69"><path d="M68.3 0H0V68.3H68.3V0Z" fill="white"></path></mask><g mask="url(#mask8_1071_712)"><path d="M34.1 68.2C32.9 68.2 32 67.2 32 66.1V57.6C32 56.4 33 55.5 34.1 55.5C35.3 55.5 36.2 56.5 36.2 57.6V66.1C36.3 67.3 35.3 68.2 34.1 68.2Z" fill="#673491"></path></g><mask id="mask9_1071_712" style="mask-type:luminance" maskUnits="userSpaceOnUse" x="0" y="0" width="69" height="69"><path d="M68.3 0H0V68.3H68.3V0Z" fill="white"></path></mask><g mask="url(#mask9_1071_712)"><path d="M66.1 36.2996H57.6C56.4 36.2996 55.5 35.2996 55.5 34.1996C55.5 32.9996 56.5 32.0996 57.6 32.0996H66.1C67.3 32.0996 68.2 33.0996 68.2 34.1996C68.2 35.2996 67.3 36.2996 66.1 36.2996Z" fill="#673491"></path></g></g></g><defs><clipPath id="clip0_1071_712"><rect width="69" height="69" fill="white"></rect></clipPath></defs></svg> 