<?xml version="1.0" encoding="UTF-8"?> <svg xmlns="http://www.w3.org/2000/svg" width="77" height="60" viewBox="0 0 77 60" fill="none"><g clip-path="url(#clip0_1183_3182)"><path d="M39.1746 8.28544L45.2496 0.142578H39.1746L33.0996 8.28544H39.1746Z" fill="#673491"></path><path d="M29.7254 8.28544L35.8004 0.142578H29.7254L23.6504 8.28544H29.7254Z" fill="#673491"></path><path d="M67.5252 8.28544L73.1952 0.685435C72.4801 0.334478 71.6959 0.148986 70.9002 0.142578H67.5252L61.4502 8.28544H67.5252Z" fill="#673491"></path><path d="M48.6248 8.28544L54.6998 0.142578H48.6248L42.5498 8.28544H48.6248Z" fill="#673491"></path><path d="M20.2752 8.28544L26.3502 0.142578H20.2752L14.2002 8.28544H20.2752Z" fill="#673491"></path><path d="M58.075 8.28544L64.15 0.142578H58.075L52 8.28544H58.075Z" fill="#673491"></path><path d="M10.825 8.28544L16.9 0.142578H10.825L4.75 8.28544H10.825Z" fill="#673491"></path><path d="M0.700195 54.4286C0.700195 55.8683 1.26912 57.2491 2.28182 58.2672C3.29452 59.2852 4.66803 59.8571 6.1002 59.8571H70.9002C72.3324 59.8571 73.7059 59.2852 74.7186 58.2672C75.7313 57.2491 76.3002 55.8683 76.3002 54.4286V11H0.700195V54.4286ZM26.3502 28.6754C26.3531 28.0031 26.5219 27.342 26.8417 26.7515C27.1614 26.1609 27.622 25.6595 28.1821 25.2921C28.7777 24.8963 29.4616 24.655 30.1726 24.5899C30.8836 24.5247 31.5995 24.6378 32.2564 24.9189L48.1244 31.6706C48.87 31.9724 49.5089 32.4915 49.9588 33.1612C50.4087 33.8309 50.6491 34.6205 50.6491 35.4286C50.6491 36.2367 50.4087 37.0263 49.9588 37.6959C49.5089 38.3656 48.87 38.8847 48.1244 39.1865L32.2564 45.9383C31.72 46.1669 31.1435 46.285 30.5608 46.2857C29.7149 46.2848 28.8878 46.0343 28.1821 45.5651C27.622 45.1977 27.1614 44.6962 26.8417 44.1057C26.5219 43.5152 26.3531 42.8541 26.3502 42.1817V28.6754Z" fill="#673491"></path><path d="M75.2784 2.41699L70.9004 8.28528H76.3004V5.57099C76.2985 4.43772 75.9409 3.33395 75.2784 2.41699Z" fill="#673491"></path><path d="M29.6736 43.3004C29.8975 43.4485 30.1544 43.5383 30.4214 43.562C30.6883 43.5857 30.9569 43.5425 31.2031 43.4361L47.0724 36.6871C47.3295 36.5934 47.5517 36.4224 47.7087 36.1973C47.8657 35.9722 47.9499 35.7039 47.9499 35.429C47.9499 35.1541 47.8657 34.8858 47.7087 34.6607C47.5517 34.4356 47.3295 34.2646 47.0724 34.1709L31.2099 27.4218C31.0076 27.3332 30.7894 27.287 30.5686 27.2861C30.2524 27.2866 29.9433 27.381 29.6803 27.5576C29.4912 27.6768 29.3349 27.842 29.226 28.0379C29.117 28.2338 29.0587 28.4541 29.0566 28.6786V42.1848C29.0589 42.4077 29.1165 42.6265 29.2243 42.8213C29.332 43.0162 29.4865 43.1808 29.6736 43.3004Z" fill="#673491"></path><path d="M7.4502 0.142578H6.1002C4.66803 0.142578 3.29452 0.714515 2.28182 1.73257C1.26912 2.75062 0.700195 4.1314 0.700195 5.57115V8.28544H1.3752L7.4502 0.142578Z" fill="#673491"></path></g><defs><clipPath id="clip0_1183_3182"><rect width="77" height="60" fill="white"></rect></clipPath></defs></svg> 