<?xml version="1.0" encoding="UTF-8"?> <svg xmlns="http://www.w3.org/2000/svg" width="74" height="79" viewBox="0 0 74 79" fill="none"><g clip-path="url(#clip0_1071_762)"><mask id="mask0_1071_762" style="mask-type:luminance" maskUnits="userSpaceOnUse" x="0" y="0" width="74" height="79"><path d="M73.5 0H0V78.8H73.5V0Z" fill="white"></path></mask><g mask="url(#mask0_1071_762)"><mask id="mask1_1071_762" style="mask-type:luminance" maskUnits="userSpaceOnUse" x="0" y="0" width="74" height="79"><path d="M73.5 0H0V78.8H73.5V0Z" fill="white"></path></mask><g mask="url(#mask1_1071_762)"><path fill-rule="evenodd" clip-rule="evenodd" d="M65.5 26.7C65.2 26.1 65.4 25.5 66 25.2C66.6 24.9 67.2 25.1 67.5 25.7C73.1 36.8 73.1 46.9 67.5 56.1C67.2 56.6 66.5 56.8 65.9 56.5C65.4 56.2 65.2 55.5 65.5 54.9C70.8 46.4 70.8 37 65.5 26.7ZM60 28.8C59.7 28.3 59.9 27.6 60.4 27.2C60.9 26.9 61.6 27.1 62 27.6C67.7 37.3 67.6 46.1 61.9 54.2C61.5 54.7 60.8 54.8 60.3 54.5C59.8 54.1 59.7 53.4 60 52.9C65.2 45.6 65.2 37.5 60 28.8ZM35.8 32.3C35.8 31.2 36.7 30.3 37.8 30.3C38.9 30.3 39.8 31.2 39.8 32.3V42.7C39.8 43.8 38.9 44.7 37.8 44.7C36.7 44.7 35.8 43.8 35.8 42.7V32.3ZM37.9 51.1C36.8 51.1 35.9 50.2 35.9 49.1C35.9 48 36.8 47.1 37.9 47.1C39 47.1 39.9 48 39.9 49.1C39.9 50.2 39 51.1 37.9 51.1ZM37.9 55C45.8 55 52.3 48.5 52.3 40.6C52.3 32.7 45.8 26.2 37.9 26.2C30 26.2 23.5 32.7 23.5 40.6C23.5 48.5 29.9 55 37.9 55ZM26.8 55.5L21.4 60.9C22 61.9 21.8 63.1 21 63.9L7.5 77.5C6.5 78.5 4.9 78.5 4 77.5L1 74.5C0 73.5 0 71.9 1 71L14.6 57.4C15.4 56.6 16.7 56.5 17.6 57L23 51.6C20.7 48.5 19.3 44.7 19.3 40.5C19.3 30.2 27.6 21.9 37.9 21.9C48.2 21.9 56.5 30.2 56.5 40.5C56.5 50.8 48.2 59.1 37.9 59.1C33.7 59.2 29.9 57.8 26.8 55.5ZM71.6 53.3L72.8 55.3C73.8 57 73.8 58.9 72.8 60.6C71.8 62.3 70.1 63.3 68.2 63.3H23.9C24 62.7 24.1 62.1 24 61.5C24 61.5 25.6 59.9 27.1 58.4C30.2 60.3 33.9 61.4 37.9 61.4C49.4 61.4 58.8 52.1 58.8 40.5C58.8 28.9 49.5 19.6 37.9 19.6C26.4 19.7 17 29 17 40.6C17 44.5 18.1 48.2 20 51.4L16.9 54.5C15.5 54.3 14 54.8 12.9 55.9L5.6 63.2C4.4 62.8 3.3 62 2.6 60.8C1.6 59.1 1.6 57.2 2.6 55.5L33.1 2.7C34.1 1 35.8 0 37.7 0C39.7 0 41.3 1 42.3 2.7L58.7 31.2C62.7 38.6 62.6 45.4 58.2 51.7C57.1 53.2 57.5 55.4 59 56.5C60.3 57.4 62 57.3 63.1 56.3C63.3 57.2 63.8 58 64.7 58.6C66.3 59.6 68.4 59.1 69.4 57.5C70.3 56 71 54.7 71.6 53.3Z" fill="#673491"></path></g></g></g><defs><clipPath id="clip0_1071_762"><rect width="74" height="79" fill="white"></rect></clipPath></defs></svg> 