<?xml version="1.0" encoding="UTF-8"?> <svg xmlns="http://www.w3.org/2000/svg" xmlns:xlink="http://www.w3.org/1999/xlink" version="1.1" id="Layer_1" x="0px" y="0px" viewBox="1 -1 512 512" xml:space="preserve"> <g> <path fill="#673390" d="M452.5,372.1l-103.2,32.6l-17.8-1.6c-0.8-31.8-27.2-57.4-59-57.4h-45c-27.9-20.2-62.8-31.8-97.7-31.8h-25.6 v-18.6c0-4.7-3.1-7.8-7.8-7.8H16.5c-4.7,0-7.8,3.1-7.8,7.8v161.4c0,4.7,3.1,7.8,7.8,7.8h79.1c4.7,0,7.8-3.1,7.8-7.8v-13.2 L243,485.4c46.5,14,62.1-2.3,256.8-68.3c3.1-0.8,5.4-3.9,5.4-7C505.2,383,478.1,363.6,452.5,372.1L452.5,372.1z M87.9,449.7H24.3 V304.6h63.6V449.7z M247.7,471.4L103.4,428v-97.7H129c32.6,0,64.4,10.9,90,30.3c1.6,0.8,3.1,1.6,4.7,1.6H271 c22.5,0,41.9,17.1,43.4,40.3l-90.8-7c-3.9,0-7.8,3.1-8.5,7c0,3.9,3.1,7.8,7,8.5l125.7,9.3h3.1l106.3-33.4 c14.7-4.7,29.5,4.7,32.6,18.6C317.5,460.6,295,485.4,247.7,471.4L247.7,471.4z"></path> <path fill="#673390" d="M392.8,116.9c-1.6-4.7-6.2-7.8-10.9-7.8h-85.3l-27.2-82.2c-1.6-4.7-6.2-7.8-10.9-7.8 c-4.7,0-9.3,3.1-10.9,7.8l-26.4,81.5H136c-4.7,0-9.3,3.1-10.9,7.8s0,10.1,3.9,13.2l69,50.4l-26.4,81.5c-1.6,4.7,0,10.1,3.9,13.2 c3.9,3.1,9.3,3.1,13.2,0l69-50.4l69,50.4c3.9,3.1,9.3,3.1,13.2,0c3.9-3.1,5.4-7.8,3.9-13.2l-24.8-81.5l69-50.4 C392.8,126.2,394.3,121.6,392.8,116.9z M307.4,168.9c-3.9,3.1-5.4,7.8-3.9,13.2l23.3,72.1l-61.3-45c-3.9-3.1-9.3-3.1-13.2,0 l-61.3,45l23.3-72.1c1.6-4.7,0-10.1-3.9-13.2l-62.1-45h76c4.7,0,9.3-3.1,10.9-7.8L258.6,44l23.3,72.1c1.6,4.7,6.2,7.8,10.9,7.8h76 L307.4,168.9z"></path> <path fill="#673390" d="M499.8,183.6c-1.6-3.9-5.4-7-9.3-7h-44.2l-14-41.9c-1.6-3.9-5.4-7-9.3-7s-7.8,2.3-9.3,7l-13.2,42.7h-44.2 c-3.9,0-7.8,3.1-9.3,7s0,8.5,3.9,10.9l35.7,25.6l-14,41.9c-1.6,3.9,0,8.5,3.9,10.9c3.1,2.3,7.8,2.3,11.6,0l35.7-25.6l35.7,25.6 c3.1,2.3,7.8,2.3,11.6,0c3.1-2.3,4.7-7,3.9-10.9l-14-41.9l35.7-25.6C499.8,192.2,500.6,188.3,499.8,183.6L499.8,183.6z M447.8,210.8c-3.1,2.3-4.7,7-3.9,10.9l9.3,28.7l-24.8-17.8c-3.1-2.3-7.8-2.3-11.6,0L392,250.3l9.3-28.7c1.6-3.9,0-8.5-3.9-10.9 l-23.3-17.8h30.3c3.9,0,7.8-2.3,9.3-7l9.3-28.7l9.3,28.7c1.6,3.9,5.4,7,9.3,7h30.3L447.8,210.8z"></path> <path fill="#673390" d="M170.9,183.6c-1.6-3.9-5.4-7-9.3-7h-44.2l-14-41.9c-1.6-3.9-5.4-7-9.3-7c-3.9,0-7.8,2.3-9.3,7l-13.2,42.7 H27.4c-3.9,0-7.8,2.3-9.3,7c-1.6,3.9,0,8.5,3.9,10.9l35.7,25.6l-14,41.9c-1.6,3.9,0,8.5,3.9,10.9c3.1,2.3,7.8,2.3,11.6,0L94.9,248 l35.7,25.6c3.1,2.3,7.8,2.3,11.6,0c3.1-2.3,4.7-7,3.9-10.9l-14-41.9l35.7-25.6C170.9,192.2,171.7,188.3,170.9,183.6L170.9,183.6z M118.9,210.8c-3.1,2.3-4.7,7-3.9,10.9l9.3,28.7l-24.8-17.8c-1.6-1.6-3.9-1.6-5.4-1.6c-2.3,0-3.9,0.8-5.4,1.6l-24.8,17.8l9.3-29.5 c1.6-3.9,0-8.5-3.9-10.9l-24-17.1h30.3c4.7,0,7.8-3.1,9.3-7l9.3-28.7l9.3,28.7c1.6,3.9,4.7,7,9.3,7H143L118.9,210.8z"></path> </g> </svg> 